# xmcd CD database file
#
# Track frame offsets:
#	150
#	19058
#	33894
#	49275
#	66694
#	87665
#	104923
#	122555
#	139063
#	152724
#	174666
#	189816
#	205991
#	222875
#	242159
#
# Disc length: 3454 seconds
#
# Revision: 3
# Processed by: cddbd v1.5.2PL0 Copyright (c) Steve Scherf et al.
# Submitted via: CDex 2.21
#
DISCID=e00d7c0f
DTITLE=Tim McGraw - A Place In The Sun (Bonus Track)
DYEAR=1999
DGENRE=Country
TTITLE0=The Trouble With Never
TTITLE1=Seventeen
TTITLE2=She'll  Have  You  Back
TTITLE3=Somebody Must Be Prayin' For
TTITLE4=My Best Friend
TTITLE5=Senorita Margarita
TTITLE6=Some Things Never Change
TTITLE7=You Don't Love Me Anymore
TTITLE8=Something Like That
TTITLE9=Please remember me
TTITLE10=Carry  On
TTITLE11=My Next Thirty Years
TTITLE12=Eyes Of A Woman
TTITLE13=A Place In The Sun
TTITLE14=It's Your Love (With Faith Hill)
EXTD=YEAR: 1999
EXTT0=
EXTT1=
EXTT2=
EXTT3=
EXTT4=
EXTT5=
EXTT6=
EXTT7=
EXTT8=
EXTT9=
EXTT10=
EXTT11=
EXTT12=
EXTT13=
EXTT14=
PLAYORDER=
